<?xml version="1.0" encoding="UTF-8"?>
<svg width="128px" height="128px" viewBox="0 0 128 128" version="1.1" xmlns="http://www.w3.org/2000/svg" xmlns:xlink="http://www.w3.org/1999/xlink">
    <!-- Generator: Sketch 50 (54983) - http://www.bohemiancoding.com/sketch -->
    <title>Unete 2</title>
    <desc>Created with Sketch.</desc>
    <defs></defs>
    <g id="Unete-2" stroke="none" stroke-width="1" fill="none" fill-rule="evenodd">
        <g id="Group-5" transform="translate(20.000000, 13.000000)" stroke="#4E008E" stroke-width="3.0121875">
            <path d="M7.57505927,50.2225117 C7.57505927,50.9215548 7.57505927,52.0600295 7.57505927,54.2026575 C7.57505927,60.6032704 7.57505927,60.6032704 7.57505927,70.6613764 L7.57505927,97.4817188 C7.57505927,99.145304 8.92366155,100.493906 10.5872468,100.493906 L77.4127532,100.493906 C79.0763385,100.493906 80.4249407,99.145304 80.4249407,97.4817188 L80.4249407,70.4642455 C80.4249407,60.4964912 80.4249407,60.4964912 80.4249407,54.1533748 C80.4249407,52.0437604 80.4249407,50.9164174 80.4249407,50.2225117 C80.0181544,50.2225117 79.4619218,50.2225117 78.6713362,50.2225117 C75.1153017,50.2225117 75.1153017,50.2225117 70.0775862,50.2225117 C58.2241379,50.2225117 58.2241379,50.2225117 44,50.2225117 C29.7758621,50.2225117 29.7758621,50.2225117 17.9224138,50.2225117 C12.8846983,50.2225117 12.8846983,50.2225117 9.32866379,50.2225117 C8.53807818,50.2225117 7.9818456,50.2225117 7.57505927,50.2225117 Z" id="Rectangle-11"></path>
            <rect id="Rectangle-11-Copy" x="1.50609375" y="27.3866908" width="84.9878125" height="22.8684095" rx="4.51828125"></rect>
            <rect id="Rectangle-11-Copy-2" x="34.8854041" y="50.2225117" width="18.2291918" height="50.2713946"></rect>
            <rect id="Rectangle-11-Copy-3" x="34.8854041" y="27.1096875" width="18.2291918" height="22.9625906"></rect>
            <path d="M56.1172284,31.9425176 C62.1861939,25.1431522 65.2206767,18.9408304 65.2206767,13.3355524 C65.2206767,4.9276353 60.6689526,1.49475636 56.1172284,1.49475636 C51.5655043,1.49475636 47.0137802,4.9276353 47.0137802,13.3355524 C47.0137802,18.9408304 50.0482629,25.1431522 56.1172284,31.9425176 Z" id="Oval" transform="translate(56.117228, 16.718637) rotate(53.000000) translate(-56.117228, -16.718637) "></path>
            <path d="M31.8413664,31.9425176 C37.9103319,25.1431522 40.9448146,18.9408304 40.9448146,13.3355524 C40.9448146,4.9276353 36.3930905,1.49475636 31.8413664,1.49475636 C27.2896422,1.49475636 22.7379181,4.9276353 22.7379181,13.3355524 C22.7379181,18.9408304 25.7724008,25.1431522 31.8413664,31.9425176 Z" id="Oval" transform="translate(31.841366, 16.718637) scale(-1, 1) rotate(53.000000) translate(-31.841366, -16.718637) "></path>
        </g>
    </g>
</svg>