<?xml version="1.0" encoding="UTF-8"?>
<svg width="128px" height="128px" viewBox="0 0 128 128" version="1.1" xmlns="http://www.w3.org/2000/svg" xmlns:xlink="http://www.w3.org/1999/xlink">
    <!-- Generator: Sketch 50 (54983) - http://www.bohemiancoding.com/sketch -->
    <title>Unete 1</title>
    <desc>Created with Sketch.</desc>
    <defs></defs>
    <g id="Unete-1" stroke="none" stroke-width="1" fill="none" fill-rule="evenodd">
        <g id="Group-2" transform="translate(19.000000, 11.000000)">
            <path d="M61.7561517,13.9616228 L38.4796397,13.9616228 C33.1263949,13.9616228 28.7867325,18.3012852 28.7867325,23.6545301 L28.7867325,95.7818734 C28.7867325,98.342101 29.779343,100.670492 31.4007184,102.403201 C28.8157112,101.451935 26.6512091,99.4110111 25.6353521,96.6199668 L0.966347749,28.8424344 C-0.864569825,23.8120297 1.72912695,18.2498291 6.75953164,16.4189115 L47.0041732,1.77105986 C52.0345779,-0.0598577124 57.5967786,2.53383906 59.4276962,7.56424375 L61.7561517,13.9616228 Z" id="Combined-Shape" stroke="#4E008E" stroke-width="2.92079605"></path>
            <path d="M75.5358982,13.9616228 L38.4796397,13.9616228 C33.1263949,13.9616228 28.7867325,18.3012852 28.7867325,23.6545301 L28.7867325,95.7818734 C28.7867325,97.1767548 29.0813755,98.5028185 29.6118189,99.701222 C28.1277105,98.7297651 27.0386606,97.171089 26.7085667,95.2990334 C26.4472186,93.8168543 26.1858704,92.3346753 25.9245222,90.8524962 L14.3179529,25.0283706 C13.3883717,19.7564536 16.9085304,14.729146 22.1804475,13.7995647 L64.3572552,6.36265557 C69.5408338,5.44865082 74.4879318,8.83651186 75.5358982,13.9616228 Z" id="Combined-Shape" stroke="#4E008E" stroke-width="2.92079605"></path>
            <rect id="Rectangle-4" stroke="#4E008E" stroke-width="2.92079605" transform="translate(59.893366, 59.718202) scale(-1, 1) translate(-59.893366, -59.718202) " x="28.7867325" y="13.9616228" width="62.2132675" height="91.5131579" rx="9.69290725"></rect>
            <path d="M69.504386,53.3343967 C69.504386,56.3036338 64.6258338,56.3036338 64.4684612,53.3343967 C64.4684612,47.0660072 53.9244936,47.0660072 53.9244936,53.4993543 C53.9244936,61.0874047 69.504386,54.4891 69.504386,67.0258789 C69.504386,71.314777 66.1995603,75.1088022 61.6357534,76.0985479 L61.6357534,78.2429969 C61.6357534,81.3771916 56.7572013,81.3771916 56.7572013,78.2429969 L56.7572013,76.0985479 C52.3507671,75.1088022 49.0459414,71.4797346 49.0459414,67.1908366 C48.8885688,64.2215994 53.7671209,64.0566418 53.9244936,67.0258789 C54.0818662,73.459226 64.4684612,73.2942684 64.4684612,67.0258789 C64.4684612,59.2728709 49.0459414,65.2113451 49.0459414,53.4993543 C49.0459414,49.0454986 52.1933944,45.2514734 56.7572013,44.2617277 L56.7572013,42.1172787 C56.7572013,39.1480416 61.6357534,39.1480416 61.6357534,42.1172787 L61.6357534,44.2617277 C66.1995603,45.2514734 69.3470133,49.0454986 69.504386,53.3343967 Z" id="Shape" fill="#4E008E" fill-rule="nonzero"></path>
        </g>
    </g>
</svg>