<?xml version="1.0" encoding="UTF-8"?>
<svg width="128px" height="128px" viewBox="0 0 128 128" version="1.1" xmlns="http://www.w3.org/2000/svg" xmlns:xlink="http://www.w3.org/1999/xlink">
    <!-- Generator: Sketch 50 (54983) - http://www.bohemiancoding.com/sketch -->
    <title>Unete 4</title>
    <desc>Created with Sketch.</desc>
    <defs></defs>
    <g id="Unete-4" stroke="none" stroke-width="1" fill="none" fill-rule="evenodd">
        <g id="Group-8" transform="translate(6.000000, 17.000000)" fill-rule="nonzero" stroke="#4E008E" stroke-width="2.96915625">
            <path d="M56.1400942,44.1239013 L66.2857143,41.6363963 L65.3219551,24.1779142 L54.9805947,22.9595121 C54.58762,22.1578067 54.1543019,21.3703609 53.677652,20.6019278 C53.1995079,19.8319104 52.6899856,19.0999185 52.1520735,18.4011989 L55.1927712,7.84593914 L40.4524851,0 L34.282932,8.89322625 C32.5780494,8.80766875 30.8582249,8.91065463 29.1518481,9.20693706 L22.049914,1.1375978 L8.27189293,10.7485564 L12.4481828,20.8570159 C11.517296,22.401804 10.7447945,24.0353184 10.1456201,25.7290399 L0,28.2181292 L0.962265002,45.6766113 L11.3036254,46.8965978 C11.6951058,47.6951345 12.1269297,48.4825803 12.6050738,49.2525977 C13.0832179,50.0210308 13.5942344,50.7546071 14.1306524,51.454911 L11.0929431,62.0085864 L25.8287466,69.8529412 L31.9982997,60.9612993 C33.7076649,61.0468568 35.4259952,60.9422865 37.132372,60.6460041 L44.2328119,68.7169278 L58.010833,59.1059692 L53.8330489,48.9943409 C54.7684183,47.4511372 55.5379314,45.8192072 56.1400942,44.1239013 Z M39.3945913,45.0032422 C34.1469598,48.6647861 27.0928401,47.1215824 23.6412374,41.5540076 C20.1881404,35.9896017 21.6434915,28.5128273 26.891123,24.8512834 C32.1387545,21.1897395 39.1928742,22.7329432 42.6444769,28.2973492 C46.0990681,33.8633395 44.6422228,41.3432827 39.3945913,45.0032422 Z" id="Shape"></path>
            <path d="M116,72.3110979 L114.328561,60.4550117 L108.242029,60.2888265 C108.056482,59.9518398 107.857248,59.621008 107.65193,59.2947925 L110.438169,53.8106795 L100.970736,46.6216289 L96.543476,50.8639689 C96.1754248,50.757795 95.8073736,50.6546986 95.4347598,50.5731447 L93.5701699,44.7058824 L81.8533669,46.3969711 L81.6906335,52.5550576 C81.3545207,52.7443242 81.027533,52.9459007 80.7066289,53.1536323 L75.2862387,50.3346381 L68.1822425,59.9133709 L72.3737676,64.3896013 C72.2688274,64.7665956 72.1699706,65.1389736 72.0848018,65.5144292 L66.2857143,67.3978619 L67.9601951,79.2524094 L74.0497692,79.4216721 C74.2307531,79.7555814 74.4315083,80.0864131 74.6368261,80.4141673 L71.8490665,85.9013579 L81.314978,93.0827147 L85.7437592,88.8403747 C86.1133312,88.9450099 86.4798615,89.049645 86.8509545,89.1311989 L88.7140235,95 L100.430827,93.3058338 L100.598123,87.1446697 C100.931194,86.9569419 101.25666,86.7569041 101.576044,86.5491726 L107.000996,89.3712442 L114.106514,79.7909727 L109.911947,75.3116648 C110.018408,74.9408255 110.118785,74.5684475 110.202433,74.1899144 L116,72.3110979 Z M100.773023,77.1597063 C96.782253,82.5391842 89.2372037,83.6286208 83.918712,79.5924736 C78.6002203,75.5547877 77.5234424,67.9210377 81.5142123,62.5400211 C85.5034613,57.1590044 93.0500315,56.0695678 98.3685232,60.1072537 C103.687015,64.1449397 104.762272,71.7786896 100.773023,77.1597063 Z" id="Shape"></path>
        </g>
    </g>
</svg>