<?xml version="1.0" encoding="UTF-8"?>
<svg width="128px" height="128px" viewBox="0 0 128 128" version="1.1" xmlns="http://www.w3.org/2000/svg" xmlns:xlink="http://www.w3.org/1999/xlink">
    <!-- Generator: Sketch 50 (54983) - http://www.bohemiancoding.com/sketch -->
    <title>Unete 3</title>
    <desc>Created with Sketch.</desc>
    <defs></defs>
    <g id="Unete-3" stroke="none" stroke-width="1" fill="none" fill-rule="evenodd">
        <g id="Group-6" transform="translate(14.000000, 26.000000)" stroke="#4E008E" stroke-width="3.0121875">
            <path d="M94.2164179,59.7763158 L94.2164179,29.3815789" id="Line-4" stroke-linecap="square"></path>
            <path d="M85.5694444,64.4285714 C84.3069444,66.7857143 77.4333333,75.9 49.7986111,75.9 C21.7430556,75.9 15.15,66.4714286 14.0277778,64.4285714 L14.0277778,33.1559446 C31.5046092,43.3477316 43.3319512,48.4436251 49.5098039,48.4436251 C55.6876566,48.4436251 67.7075368,43.3477316 85.5694444,33.1559446 L85.5694444,64.4285714 Z" id="Path"></path>
            <path d="M60.5610982,45.8857143 C57.8958205,47.3 53.8277649,48.0857143 49.7597094,48.0857143 C45.6916538,48.0857143 41.6235982,47.3 38.9583205,45.8857143 C22.2627183,37.1619004 9.74101668,30.61904 1.39321559,26.2571331 C0.451510503,25.7650717 -0.0126157573,25.0269798 0.000836811025,24.0428571 C-0.0223053676,23.0637975 0.434553685,22.3295029 1.37141397,21.8399731 C9.72405986,17.4755346 22.2530287,10.9288769 38.9583205,2.2 C41.6235982,0.785714286 45.6916538,0 49.7597094,0 C53.8277649,0 57.8958205,0.785714286 60.5610982,2.2 C77.2876033,10.9693888 89.832482,17.5464304 98.1957346,21.9311247 C99.0908154,22.4003986 99.5638326,23.1043094 99.6147862,24.0428571 C99.5577563,24.9845906 99.0801819,25.6908906 98.1820629,26.1617573 C89.8218485,30.5448589 77.281527,37.1195112 60.5610982,45.8857143 Z" id="Path"></path>
            <path d="M94.9701493,75.4285714 C96.9800995,73.0833963 97.9850746,70.4643487 97.9850746,67.5714286 C97.9850746,64.6785085 96.9800995,62.0594608 94.9701493,59.7142857 C92.960199,62.0594608 91.9552239,64.6785085 91.9552239,67.5714286 C91.9552239,70.4643487 92.960199,73.0833963 94.9701493,75.4285714 Z" id="Oval-4"></path>
        </g>
    </g>
</svg>