<?xml version="1.0" encoding="utf-8"?>
<!-- Generator: Adobe Illustrator 22.1.0, SVG Export Plug-In . SVG Version: 6.00 Build 0)  -->
<svg version="1.1" id="Capa_1" xmlns="http://www.w3.org/2000/svg" xmlns:xlink="http://www.w3.org/1999/xlink" x="0px" y="0px"
	 viewBox="0 0 152.3 43.3" style="enable-background:new 0 0 152.3 43.3;" xml:space="preserve">
<title>L&apos;BEL LOGO</title>
<desc>Created with Sketch.</desc>
<g id="L_x27_BEL-LOGO">
	<g id="logo_lbel" transform="translate(28.000000, 22.000000)">
		<polygon id="Shape" points="2.4,16.1 -25.6,16.1 -25.6,-15.8 -20.7,-15.8 -20.7,11.3 2.4,11.3 		"/>
		<path id="Shape_1_" d="M35.5,11.3c4.2,0,6.3-1.4,6.3-4.3c0-3.1-1.8-4.6-5.5-4.6h-20v8.9H35.5z M35.9-2.4c1.4,0,2.5-0.4,3.5-1.2
			c0.9-0.8,1.4-1.9,1.4-3.1c0-1.3-0.4-2.3-1.3-3.1c-0.8-0.8-2-1.1-3.4-1.1H16.3v8.5H35.9z M41.8-0.3c3.5,1.2,5.2,3.9,5.2,8
			c0,5.6-3.8,8.4-11.5,8.4H11.3v-31.9h24.5c3.1,0,5.5,0.8,7.3,2.4c1.8,1.6,2.6,3.7,2.6,6.3C45.8-4.1,44.5-1.9,41.8-0.3z"/>
		<polygon id="Shape_2_" points="86.5,16.1 54.6,16.1 54.6,-15.8 85.7,-15.8 85.7,-11 59.7,-11 59.7,-2.8 77.5,-2.8 77.5,2 59.7,2 
			59.7,11.3 86.5,11.3 		"/>
		<polygon id="Shape_3_" points="122.2,16.1 94.1,16.1 94.1,-15.8 99.1,-15.8 99.1,11.3 122.2,11.3 		"/>
		<path id="Shape_4_" d="M-1.4-15.8v7c0,2.5,2.1,4.5,4.7,4.5h0.4v-11.5H-1.4z"/>
	</g>
</g>
</svg>
